<svg xmlns="http://www.w3.org/2000/svg" width="406.764" height="122.808" viewBox="0 0 406.764 122.808"><title>logo-mail-shark</title><g id="Layer_2" data-name="Layer 2"><g id="Layer_1-2" data-name="Layer 1"><path d="M227.8,55.18s-5.2-4.2-24.5,1.9c0,0-30.4,8.8-27.9,18.2,0,0,0,9.4,33.9,14.8,0,0,10.9,1.5,0,4.7,0,0-41.5,20-52.9,2.5H0v7.2H152.7s2.2,10.8,30.6,5.9c0,0,26.9-4.4,42.3-15.8,0,0,10.6-4.3-14.6-11.8,0,0-38.3-5.3-18.3-13.9,0,0,16.6-9.1,31.6-7.4C224.4,61.38,234.5,60.38,227.8,55.18Z" style="fill:#ff8c00"/><path d="M298.4,98.58s12.3-14.4,2.9-14.8c0,0-28.3-.8-34.3,22.1a35.1,35.1,0,0,1-.9-7.9s0-11.1-9.1-12.2c0,0-4.2-2.2-16.1,10.2,0,0-8.4,10.1-3.1-4,0,0,13.1-40.5,29-55.4,0,0,5-2.7.7-6.4,0,0-3.3-5-7.5-.7,0,0-18,24.6-30.1,61.2,0,0-6.3,28.3,8,18.4,0,0,18.2-20.2,19.3-11.2,0,0,.3,13.8,10.2,24.1,0,0,4.6,2.8,9.5-1.9,0,0,3-2-2.2-3,0,0-3.2-1.1-5.7-5.5,2.7.3,7.5-.8,16.3-7.2,0,0,4.5-5.1,3.6,0,0,0-.6,9.5,9.4,9.3,0,0,4.4-.2.1-5.6C298.6,107.78,295.3,104.18,298.4,98.58Zm-3.3-8.5c-2.3,3.8-19,13.6-19,13.6-3.3,1.3-1.3-1.1-1.3-1.1,5-9.9,19.9-13.7,19.9-13.7C296.4,88.28,295.1,90.08,295.1,90.08Z" style="fill:#ff8c00"/><path d="M329.2,91.58s-2.1-.8-4.3,2.5l-12.1,16.4s-11.3,7.2-9.4-11c0,0,1.9-13.5,7.6-9.6,0,0,1.8.8.6,8.2,0,0-1,5.8,1.1,1.3,0,0,12-22.6,18.4-13.8C331.1,85.48,334.5,90.58,329.2,91.58Z" style="fill:#ff8c00"/><path d="M357.7,44.48s2.8-4.7,6.3,0c0,0,2.7,3.5-4.1,13.1,0,0-14.9,24.8-17.5,31.3,0,0-9.4,17.4,0,11.3,0,0,20.4-11.8,32.2-22.3,0,0,7.6-4.1,4.2,2.9,0,0-3.5,5.1-19.1,16.9a5.364,5.364,0,0,0-2.6,6.4s1.2,4.9,12.2,0c0,0,11.9-7,8.9.3,0,0-7.8,12.5-22.9,9,0,0-5.3-1.8-5.3-6.6,0,0,.2-3.2-3.4-.6,0,0-16.1,12.1-16.7-2.6a51.38,51.38,0,0,1,10-25.9C339.7,77.68,356.4,49.78,357.7,44.48Z" style="fill:#ff8c00"/><path d="M143.1,56.08v6c.2.1.3.1.5.2v-6.3A1.087,1.087,0,0,1,143.1,56.08Z" style="fill:#1594e0"/><path d="M259.1,28.28a6.443,6.443,0,0,1,4.5-2.2,6.057,6.057,0,0,1,3.9,1.6,120.8,120.8,0,0,1,43-6.3s-17.8,16.1-.2,23c0,0,18.7,2.2,24.8,7.4a60.411,60.411,0,0,0,15.4,4c1.1-2.1,2.2-4.1,3.1-5.8a33.444,33.444,0,0,0-9.8-2,13.146,13.146,0,0,1-7.2-2.4,52.936,52.936,0,0,0-23-6.5s-8.5.6-2.6-8.7c0,0,4.4-6.5,10.8-9.1,0,0,3.7-2.4,1.5-4.4,0,0-.6-3.5-18.4-1.7,0,0-33.3.8-51.6,12.4,0,0-2.9,2.9-10.7,2.8,0,0-20.6-.6-33.4,6.3,0,0-2.8,3.2-5.9,3.3a55.392,55.392,0,0,1-11.7,2.4s-13,.9-13.3,9.8c0,0-8.9-.3-15.5,1.3v5.5a66.677,66.677,0,0,1,9.4-.6s18.9.9,20.6-4.6c0,0,.6-1.9-3.2-2.1,0,0-6.5-.9,1.1-2.6,0,0,15.8-2.3,21.3-6.7,0,0,7.2-5.2,28-6.1,0,0,11.9.7,15.2-3.3a6.908,6.908,0,0,1,1-.5c1.7-2.5,2.7-3.9,2.7-4C259,28.38,259,28.28,259.1,28.28Z" style="fill:#1594e0"/><path d="M403.4.48s-2.4-2.6-8.7,4.3a124.859,124.859,0,0,0-29.3,30.8s-1.2,2.7-2.5,5.9a6.39,6.39,0,0,1,2.3,2.1c.3.4,2.1,3.2-.9,9.6a10.965,10.965,0,0,0,3-3.9s1.9-18.4,28.7-36.1c0,0-4.8,10.8-2.6,31.7,0,0,.7,2.6-1.5,2.1,0,0-5.7-.1-3.9,8.3,0,0,1.7,3,.2,5.4,0,0-2.2,4.3,3.3,9.8,0,0,11.7,15.9,4.4,12.3,0,0-12.6-9.1-20.8-13,0,0-3.3-3.9-8.3,0,0,0-4.6,5.7,2.4,5.6,0,0,.6-2.8,2.8-.7,0,0,1.1.6,2.8,1.6a8.972,8.972,0,0,1,3.3-.9,2.632,2.632,0,0,1,2.4,1.2,3.783,3.783,0,0,1,.2,3c6,3.5,13.6,8.1,16.9,11,0,0,1.3,3.9,3.9,3.3,0,0,6.7,1.5,3.7-8.5,0,0-3.3-13.9-9.6-19.5a3.938,3.938,0,0,1-.9-4.3,4.5,4.5,0,0,0,.7-6.3s-2.6-2.8.4-3.5c0,0,4.8.9,4.1-9.3,0,0-2.7-22.8,6.1-36.3C406,6.08,408.9,3.08,403.4.48Z" style="fill:#1594e0"/><path d="M392.5,100.88a4.14,4.14,0,0,1,4.2,4.1,4.079,4.079,0,0,1-4.2,4.1,4.1,4.1,0,1,1,0-8.2Zm0,.9a3.3,3.3,0,0,0,.1,6.6,3.1,3.1,0,0,0,3.1-3.3,3.183,3.183,0,0,0-3.2-3.3Zm-.6,5.3H391v-4.1a7.115,7.115,0,0,1,1.6-.1,2.213,2.213,0,0,1,1.4.3,1.268,1.268,0,0,1,.4.9,1.187,1.187,0,0,1-.8,1h0c.4.1.6.4.7,1a2.264,2.264,0,0,0,.3,1h-1a4.053,4.053,0,0,1-.3-1,.7.7,0,0,0-.8-.6h-.4v1.6Zm0-2.3h.4c.5,0,.9-.2.9-.6s-.3-.6-.9-.6a.749.749,0,0,0-.5.1v1.1Z" style="fill:#002a42"/><polygon points="15.5 62.88 29.6 87.78 43.5 63.08 43.5 87.78 59.5 87.78 59.5 26.28 46.4 26.28 29.6 56.68 13.3 26.28 0 26.28 0 87.78 15.5 87.78 15.5 62.88" style="fill:#002a42"/><path d="M83,78.68h19.8l3.7,9.1h16.6l-25-61.5H87.4L62.7,87.78H79Zm9.6-25.7,5.5,13.8H87.4Z" style="fill:#002a42"/><rect x="125.8" y="26.28" width="15.8" height="61.5" style="fill:#002a42"/><path d="M209.3,76.18H191.4c3.8,1.8,10.9,3.6,17.9,4.7Z" style="fill:#002a42"/><path d="M174.1,76.18H161.3V26.28H145v61.5h47.3C177.8,83.48,174.7,78.38,174.1,76.18Z" style="fill:#002a42"/></g></g></svg>