<?xml version="1.0" encoding="utf-8"?>
<!-- Generator: Adobe Illustrator 26.0.3, SVG Export Plug-In . SVG Version: 6.00 Build 0)  -->
<svg version="1.1" id="Final_Logo" xmlns="http://www.w3.org/2000/svg" xmlns:xlink="http://www.w3.org/1999/xlink" x="0px" y="0px"
	 viewBox="0 0 426.31 314.45"  style="enable-background:new 0 0 426.31 314.45;" xml:space="preserve">
<style type="text/css">
	.st0{fill:none;}
	.st1{fill:#FFFFFF;}
	.st2{fill:#CD163F;}
	.st3{fill:#FDB515;}
</style>
<path class="st0" d="M145.61,289.28h-4.65v8.93h4.65c1.46,0,2.58-0.39,3.37-1.16c0.79-0.77,1.19-1.89,1.19-3.35
	c0-1.43-0.4-2.52-1.19-3.28C148.19,289.66,147.07,289.28,145.61,289.28z"/>
<path class="st0" d="M270.04,289.28c-1.71,0-3.06,0.56-4.05,1.67c-0.99,1.12-1.49,2.61-1.49,4.47v4.61h11.07v-4.61
	c0-1.86-0.5-3.35-1.51-4.47C273.06,289.84,271.72,289.28,270.04,289.28z"/>
<path class="st1" d="M334.25,270.02c-11.98,0-16.05-0.75-27.12-3.11l-2.67-0.57c-9.3-1.97-13.95-11.9-18.86-22.4
	c-2.11-4.51-7.06-15.08-9.63-15.52c-5.19,0-6.32,1.89-9.7,7.48c-1.61,2.66-3.6,5.98-6.4,9.04c-9.92,10.86-26.36,11.64-52.26,11.64
	h-4.32v-0.25c-22.05-0.15-37.38-1.48-46.64-11.62c-2.79-3.05-4.7-6.22-6.39-9.02c-3.38-5.61-4.52-7.5-9.73-7.5
	c-2.54,0.44-7.49,11-9.6,15.51c-4.7,10.05-9.56,20.43-18.87,22.41l-2.67,0.57c-11.06,2.36-15.14,3.11-27.12,3.11
	c-4.41,0-9.91-0.1-17.34-0.27c-20.33-0.46-22.01-0.64-45.01-4.99c-17.25-3.26-18.97-24.02-19.54-30.84
	c-1.2-14.4,0.46-32.59,3.33-55.46c4.88-38.96,8.46-61.46,20.19-99.38C36.4,38.45,46.57,22.51,67.46,10.6
	C84.6,0.83,108.18,0.03,137.23,0.01l9.7-0.01l19.32,0.45l42.8,55.2l38-55.5l23.08,0.33l11.28-0.01c28.05,0,50.85,0.76,67.68,10.36
	c20.88,11.91,31.06,27.85,43.55,68.24c11.73,37.92,15.31,60.43,20.19,99.39c2.87,22.88,4.53,41.06,3.33,55.46
	c-0.57,6.82-2.3,27.58-19.54,30.84c-22.99,4.35-24.67,4.53-45.01,4.99C344.16,269.92,338.67,270.02,334.25,270.02z"/>
<path class="st2" d="M408.53,178.99c-4.85-38.7-8.41-61.05-20.03-98.65c-12.1-39.14-21.81-54.51-41.56-65.77
	c-15.85-9.03-37.73-9.82-67.22-9.79c14.95,16.85,24.03,39.03,24.03,63.33c0,52.73-42.75,95.48-95.48,95.48s-95.48-42.75-95.48-95.48
	c0-24.52,9.25-46.88,24.44-63.79C107.56,4.35,85.51,5.28,69.6,14.35C49.85,25.61,40.14,40.98,28.04,80.12
	c-11.62,37.6-15.18,59.95-20.03,98.65c-5.1,40.73-7.97,77.61,12.73,81.52c22.66,4.28,24.32,4.47,44.31,4.92
	c27.04,0.6,28.8,0.38,43.45-2.75l2.67-0.57c7.2-1.53,11.4-10.5,15.85-20.01c3.95-8.44,8.43-18.01,13.52-18.01
	c7.65,0,9.95,3.81,13.42,9.57c1.59,2.63,3.39,5.61,5.89,8.35c8.57,9.38,23.82,10.21,47.77,10.23v0.23
	c24.71,0,40.35-0.69,49.07-10.24c2.5-2.74,4.3-5.72,5.89-8.35c3.48-5.76,5.77-9.57,13.43-9.57c5.09,0,9.56,9.57,13.51,18.01
	c4.45,9.5,8.65,18.48,15.85,20.01l2.67,0.57c14.66,3.13,16.41,3.35,43.45,2.75c20-0.45,21.65-0.63,44.31-4.92
	C416.5,256.6,413.63,219.72,408.53,178.99z"/>
<path class="st2" d="M155.87,284.86c-2.31-2.02-5.58-3.02-9.79-3.02h-14.79v32.61h9.68v-8.74l5.12-0.05c4.22,0,7.48-1.07,9.79-3.21
	c2.31-2.14,3.47-5.15,3.47-9.02C159.33,289.73,158.18,286.88,155.87,284.86z M148.98,297.05c-0.79,0.78-1.92,1.16-3.37,1.16h-4.65
	v-8.93h4.65c1.46,0,2.58,0.38,3.37,1.14c0.79,0.76,1.19,1.85,1.19,3.28C150.17,295.16,149.77,296.27,148.98,297.05z"/>
<rect x="166.54" y="281.84" class="st2" width="9.68" height="32.61"/>
<polygon class="st2" points="212.64,287.98 212.64,281.84 184.13,281.84 184.13,289.38 199.76,289.38 183.57,308.35 183.57,314.45 
	212.97,314.45 212.97,306.91 196.45,306.91 "/>
<polygon class="st2" points="247.71,287.98 247.71,281.84 219.2,281.84 219.2,289.38 234.83,289.38 218.64,308.35 218.64,314.45 
	248.04,314.45 248.04,306.91 231.53,306.91 "/>
<path class="st2" d="M278.04,282.98c-2.29-1.16-4.99-1.74-8.09-1.74c-3.04,0-5.7,0.58-7.98,1.74c-2.28,1.16-4.04,2.81-5.28,4.95
	c-1.24,2.14-1.86,4.64-1.86,7.49v19.03h9.68v-7.35h11.07v7.35h9.68v-19.03c0-2.85-0.63-5.35-1.88-7.49
	C282.12,285.79,280.34,284.14,278.04,282.98z M275.58,300.03h-11.07v-4.61c0-1.86,0.5-3.35,1.49-4.47c0.99-1.12,2.34-1.67,4.05-1.67
	c1.67,0,3.02,0.56,4.02,1.67c1.01,1.12,1.51,2.61,1.51,4.47V300.03z"/>
<path class="st2" d="M416.65,263.8v-2.14h1.33c0.72,0,1.71,0.07,1.71,0.99c0,0.98-0.5,1.16-1.36,1.16H416.65z M416.65,265.31h0.9
	l2.06,3.74h2.25l-2.27-3.89c1.18-0.09,2.14-0.68,2.14-2.32c0-2.03-1.35-2.69-3.65-2.69h-3.32v8.9h1.9V265.31z M426.31,264.61
	c0-5.23-3.92-8.27-8.29-8.27c-4.4,0-8.31,3.04-8.31,8.27c0,5.23,3.91,8.27,8.31,8.27C422.4,272.87,426.31,269.83,426.31,264.61z
	 M423.93,264.61c0,3.81-2.71,6.36-5.9,6.36v-0.02c-3.28,0.02-5.93-2.54-5.93-6.34c0-3.81,2.65-6.34,5.93-6.34
	C421.22,258.26,423.93,260.8,423.93,264.61z"/>
<path class="st3" d="M174.89,143.59c10.18,4.64,21.48,7.25,33.4,7.25c13.32,0,25.88-3.25,36.95-8.97l-36.4-67.45L174.89,143.59z"/>
<path class="st3" d="M128.22,80.56c3.35,25.38,18.48,47.03,39.74,59.27l33.79-65.52L128.22,80.56z"/>
<path class="st3" d="M252.61,138.04c20.05-12.9,34.02-34.43,36.63-59.35l-73.21-4.28L252.61,138.04z"/>
<path class="st3" d="M289.84,71.77c0-0.3,0.03-0.59,0.03-0.89c0.12-26.87-12.07-49.81-31.98-64.85L215.41,67.1L289.84,71.77z"/>
<path class="st3" d="M156.75,8.12c-18.65,14.77-29.11,36.42-29.11,62.06c0,1.02,0.04,2.02,0.08,3.03l73.88-6.28L156.75,8.12z"/>
<circle class="st2" cx="144.59" cy="55.63" r="7.34"/>
<circle class="st2" cx="153.52" cy="33.33" r="7.34"/>
<circle class="st2" cx="174.66" cy="55.4" r="7.34"/>
<circle class="st2" cx="272.22" cy="54.34" r="7.34"/>
<circle class="st2" cx="262.86" cy="31.23" r="7.34"/>
<circle class="st2" cx="244.21" cy="53.41" r="7.34"/>
<circle class="st2" cx="257.85" cy="114.41" r="7.34"/>
<circle class="st2" cx="240.99" cy="88.33" r="7.34"/>
<circle class="st2" cx="271.16" cy="92.86" r="7.34"/>
<circle class="st2" cx="161.64" cy="115.96" r="7.34"/>
<circle class="st2" cx="148.5" cy="94.49" r="7.34"/>
<circle class="st2" cx="178.23" cy="88.56" r="7.34"/>
<circle class="st2" cx="221.84" cy="133.05" r="7.34"/>
<circle class="st2" cx="198.3" cy="132.81" r="7.34"/>
<circle class="st2" cx="209.32" cy="104.3" r="7.34"/>
<g>
	<g>
		<path class="st1" d="M195.82,203.87c-1.34-0.04-2.01-0.07-3.35-0.12c-0.13,3.44-0.2,5.16-0.33,8.6
			c-5.03-0.19-7.55-0.32-12.57-0.64c0.72-11.39,1.45-22.78,2.17-34.17c6.68,0.43,10.03,0.58,16.72,0.76
			c9.68,0.26,15.87,5.15,15.93,13.07c0.03,4.94-2.41,8.69-6.81,10.76c3.04,4.25,4.59,6.36,7.76,10.56
			c-5.38,0.05-8.06,0.03-13.44-0.07C199.43,209.15,198.21,207.39,195.82,203.87z M197.89,187.2c-1.74-0.05-2.61-0.08-4.35-0.14
			c-0.12,3.21-0.18,4.81-0.3,8.02c1.77,0.07,2.65,0.09,4.42,0.14c3.34,0.09,4.97-1.4,5.01-3.9
			C202.72,188.83,201.18,187.29,197.89,187.2z"/>
		<path class="st1" d="M220.73,195.21c-0.19-10.34,8.56-17.63,18.44-18.17c6.55-0.36,11.96,1.51,15.73,5.45
			c-2.67,2.79-4.02,4.18-6.77,6.93c-2.22-2.31-4.72-3.55-7.81-3.36c-4.81,0.3-7.91,3.66-7.68,8.75c0.23,5.08,3.73,8.18,8.71,7.87
			c3.2-0.2,5.6-1.81,7.47-4.44c3.2,2.29,4.82,3.42,8.1,5.65c-3.12,4.59-8.59,7.4-15.62,7.89
			C231.15,212.49,220.93,206.1,220.73,195.21z"/>
		<path class="st1" d="M261.49,192.64c-1.07-10.3,7.35-18.27,17.09-19.71c9.74-1.44,20.14,3.73,22.1,13.9
			c2.07,10.71-7,19.05-17,20.53C273.69,208.84,262.62,203.49,261.49,192.64z M288.91,188.92c-0.84-5.11-4.76-7.64-9-7.01
			c-4.24,0.63-7.25,4.18-6.58,9.32c0.68,5.14,4.63,7.79,9.02,7.14C286.74,197.72,289.76,194.04,288.91,188.92z"/>
		<path class="st1" d="M312.05,170.54c0.26,1.19,0.32,2.11-0.42,5.18c-0.59,2.45-0.9,3.67-1.52,6.11c-2.18,0.47-3.28,0.69-5.47,1.13
			c0.28-2.67,0.41-4.01,0.66-6.68c-1.69-0.39-2.94-1.65-3.33-3.62c-0.58-2.9,1.17-5.18,4.04-5.79
			C308.88,166.28,311.4,167.66,312.05,170.54z"/>
		<path class="st1" d="M324.08,196.13c0.78-3.55,1.16-5.32,1.89-8.87c3.71,1,8.39,1.03,12.21,0c3.32-0.9,4.44-2.52,4.02-2.98
			c-2.92-3.25-19.44,2.35-22.22-7.9c-1.57-5.78,2.57-12.05,12.75-14.84c4.41-1.21,9.2-1.62,13.19-0.79
			c-0.39,3.52-0.59,5.28-1.03,8.8c-3.77-0.62-7.08-0.52-10,0.28c-3.3,0.9-4.23,2.71-3.82,3.19c2.82,3.32,19.03-3.21,22.34,7.07
			c1.84,5.72-2.14,12.5-13.1,15.47C334.41,197.15,328.08,197.28,324.08,196.13z"/>
		<g>
			<path class="st1" d="M172.65,191.1c0.14-2.96-0.48-5.61-1.78-7.95c-1.3-2.34-3.18-4.21-5.63-5.66c-2.45-1.45-5.33-2.37-8.69-2.82
				c-3.29-0.44-6.26-0.3-8.98,0.47c-2.72,0.76-5,2.08-6.87,4c-1.86,1.92-3.15,4.31-3.79,7.21c-1.72,7.71-2.26,12.45-3.49,20.22
				c5.05,0.8,7.59,1.17,12.65,1.84c0.47-2.85,0.73-4.52,1.19-7.37c4.61,0.73,6.92,1.04,11.55,1.53c-0.31,2.86-0.49,4.42-0.79,7.27
				c5.38,0.58,8.07,0.83,13.46,1.26C171.84,203.21,172.27,198.98,172.65,191.1z M148.55,193.1c0.29-1.78,0.43-2.66,0.72-4.44
				c0.27-1.66,0.97-2.91,2.08-3.76c1.12-0.86,2.46-1.17,4.07-0.96c1.6,0.21,2.83,0.87,3.69,1.99c0.87,1.12,1.22,2.51,1.05,4.18
				c-0.19,1.79-0.29,2.68-0.48,4.47C155.21,194.1,152.99,193.81,148.55,193.1z"/>
		</g>
		<path class="st1" d="M128.44,185.39c0.75-8.31-5.09-15.92-13.55-17.63c-4.98-1.01-9.89,0.23-13.65,3.02
			c-2-4.23-5.93-7.51-10.73-8.86c-7.42-2.08-17.4,2.81-19.49,10.5c-2.25,7.35-3.37,11.02-5.62,18.37c4.96,1.53,7.45,2.26,12.45,3.65
			c2.03-7.37,3.05-11.06,5.08-18.44c0.02-0.07,0.06-0.13,0.08-0.2c0.82-2.61,3.65-4.12,6.45-3.4h0c1.8,0.46,3.17,1.73,3.78,3.29
			c0.37,0.93,0.47,1.97,0.21,3.01c-1.89,7.46-2.84,11.18-4.73,18.64c5.05,1.29,7.59,1.9,12.66,3.05c1.71-7.55,2.56-11.33,4.27-18.88
			c0.17-0.81,0.56-1.52,1.06-2.12c1.22-1.46,3.21-2.22,5.27-1.8h0c2.73,0.56,4.57,3,4.32,5.62c-0.01,0.16-0.01,0.32-0.04,0.48
			c-1.54,7.63-2.32,11.45-3.86,19.08c5.06,1.03,7.6,1.51,12.68,2.4c1.29-7.46,1.94-11.2,3.23-18.66
			C128.37,186.06,128.39,185.83,128.44,185.39z"/>
	</g>
</g>
</svg>
